<svg width="88" height="88" viewBox="0 0 88 88" fill="none" xmlns="http://www.w3.org/2000/svg">
<g filter="url(#filter0_d_0_3)">
<rect x="23" y="18.0786" width="41.7571" height="41.7571" rx="20.8785" fill="#E3B873"/>
<rect x="19" y="14.0786" width="49.7571" height="49.7571" rx="24.8785" stroke="white" stroke-width="8"/>
</g>
<path d="M40.5727 45.1323C39.6007 45.1323 38.7187 44.8743 37.9267 44.3583C37.1347 43.8423 36.5047 43.0923 36.0367 42.1083C35.5807 41.1123 35.3527 39.9303 35.3527 38.5623C35.3527 37.1943 35.5807 36.0183 36.0367 35.0343C36.5047 34.0383 37.1347 33.2823 37.9267 32.7663C38.7187 32.2503 39.6007 31.9923 40.5727 31.9923C41.5447 31.9923 42.4267 32.2503 43.2187 32.7663C44.0107 33.2823 44.6347 34.0383 45.0907 35.0343C45.5587 36.0183 45.7927 37.1943 45.7927 38.5623C45.7927 39.9303 45.5587 41.1123 45.0907 42.1083C44.6347 43.0923 44.0107 43.8423 43.2187 44.3583C42.4267 44.8743 41.5447 45.1323 40.5727 45.1323ZM40.5727 44.7723C41.9527 44.7723 42.6427 42.7023 42.6427 38.5623C42.6427 34.4223 41.9527 32.3523 40.5727 32.3523C39.1927 32.3523 38.5027 34.4223 38.5027 38.5623C38.5027 42.7023 39.1927 44.7723 40.5727 44.7723ZM47.8613 44.8623V44.5923L49.1213 44.2323V34.3503L47.2313 35.6823L46.8713 35.2323L50.1473 32.2623H52.0913V44.2323L53.3513 44.5923V44.8623H47.8613Z" fill="white"/>
<defs>
<filter id="filter0_d_0_3" x="0" y="0.0786133" width="87.757" height="87.7571" filterUnits="userSpaceOnUse" color-interpolation-filters="sRGB">
<feFlood flood-opacity="0" result="BackgroundImageFix"/>
<feColorMatrix in="SourceAlpha" type="matrix" values="0 0 0 0 0 0 0 0 0 0 0 0 0 0 0 0 0 0 127 0" result="hardAlpha"/>
<feOffset dy="5"/>
<feGaussianBlur stdDeviation="7.5"/>
<feColorMatrix type="matrix" values="0 0 0 0 0.890196 0 0 0 0 0.721569 0 0 0 0 0.45098 0 0 0 0.15 0"/>
<feBlend mode="normal" in2="BackgroundImageFix" result="effect1_dropShadow_0_3"/>
<feBlend mode="normal" in="SourceGraphic" in2="effect1_dropShadow_0_3" result="shape"/>
</filter>
</defs>
</svg>
