<svg width="88" height="88" viewBox="0 0 88 88" fill="none" xmlns="http://www.w3.org/2000/svg">
<g filter="url(#filter0_d_0_3)">
<rect x="23" y="18.0786" width="41.7571" height="41.7571" rx="20.8785" fill="#E3B873"/>
<rect x="19" y="14.0786" width="49.7571" height="49.7571" rx="24.8785" stroke="white" stroke-width="8"/>
</g>
<path d="M39.1313 45.1323C38.1593 45.1323 37.2773 44.8743 36.4853 44.3583C35.6933 43.8423 35.0633 43.0923 34.5953 42.1083C34.1393 41.1123 33.9113 39.9303 33.9113 38.5623C33.9113 37.1943 34.1393 36.0183 34.5953 35.0343C35.0633 34.0383 35.6933 33.2823 36.4853 32.7663C37.2773 32.2503 38.1593 31.9923 39.1313 31.9923C40.1033 31.9923 40.9853 32.2503 41.7773 32.7663C42.5693 33.2823 43.1933 34.0383 43.6493 35.0343C44.1173 36.0183 44.3513 37.1943 44.3513 38.5623C44.3513 39.9303 44.1173 41.1123 43.6493 42.1083C43.1933 43.0923 42.5693 43.8423 41.7773 44.3583C40.9853 44.8743 40.1033 45.1323 39.1313 45.1323ZM39.1313 44.7723C40.5113 44.7723 41.2013 42.7023 41.2013 38.5623C41.2013 34.4223 40.5113 32.3523 39.1313 32.3523C37.7513 32.3523 37.0613 34.4223 37.0613 38.5623C37.0613 42.7023 37.7513 44.7723 39.1313 44.7723ZM45.6999 44.0523C45.6999 43.3443 45.8379 42.7023 46.1139 42.1263C46.4019 41.5383 46.7499 41.0283 47.1579 40.5963C47.5659 40.1643 48.0999 39.6543 48.7599 39.0663C49.3719 38.5263 49.8519 38.0763 50.1999 37.7163C50.5479 37.3443 50.8419 36.9303 51.0819 36.4743C51.3219 36.0063 51.4419 35.5023 51.4419 34.9623C51.4419 34.1703 51.2499 33.5523 50.8659 33.1083C50.4819 32.6643 49.9839 32.4423 49.3719 32.4423C49.0239 32.4423 48.6699 32.4903 48.3099 32.5863L47.9319 32.7123V35.5923L47.6979 35.6463C47.5059 35.6703 47.3439 35.6823 47.2119 35.6823C46.8039 35.6823 46.4739 35.5623 46.2219 35.3223C45.9819 35.0703 45.8619 34.7403 45.8619 34.3323C45.8619 33.9483 46.0059 33.5763 46.2939 33.2163C46.5939 32.8563 47.0319 32.5623 47.6079 32.3343C48.1959 32.1063 48.9039 31.9923 49.7319 31.9923C51.3519 31.9923 52.5519 32.3163 53.3319 32.9643C54.1119 33.6123 54.5019 34.5183 54.5019 35.6823C54.5019 36.4143 54.3099 37.0443 53.9259 37.5723C53.5539 38.1003 53.0919 38.5383 52.5399 38.8863C51.9999 39.2343 51.2739 39.6303 50.3619 40.0743C49.5939 40.4463 48.9699 40.7763 48.4899 41.0643C48.0219 41.3403 47.5839 41.6763 47.1759 42.0723C46.7799 42.4683 46.4979 42.9183 46.3299 43.4223H52.9899C53.0739 42.7743 53.2779 42.2343 53.6019 41.8023C53.7339 41.5983 53.8899 41.4183 54.0699 41.2623H54.6099V44.8623H45.6999V44.0523Z" fill="white"/>
<defs>
<filter id="filter0_d_0_3" x="0" y="0.0786133" width="87.757" height="87.7571" filterUnits="userSpaceOnUse" color-interpolation-filters="sRGB">
<feFlood flood-opacity="0" result="BackgroundImageFix"/>
<feColorMatrix in="SourceAlpha" type="matrix" values="0 0 0 0 0 0 0 0 0 0 0 0 0 0 0 0 0 0 127 0" result="hardAlpha"/>
<feOffset dy="5"/>
<feGaussianBlur stdDeviation="7.5"/>
<feColorMatrix type="matrix" values="0 0 0 0 0.890196 0 0 0 0 0.721569 0 0 0 0 0.45098 0 0 0 0.15 0"/>
<feBlend mode="normal" in2="BackgroundImageFix" result="effect1_dropShadow_0_3"/>
<feBlend mode="normal" in="SourceGraphic" in2="effect1_dropShadow_0_3" result="shape"/>
</filter>
</defs>
</svg>
