<svg width="88" height="88" viewBox="0 0 88 88" fill="none" xmlns="http://www.w3.org/2000/svg">
<g filter="url(#filter0_d_0_3)">
<rect x="23" y="18.0786" width="41.7571" height="41.7571" rx="20.8785" fill="#E3B873"/>
<rect x="19" y="14.0786" width="49.7571" height="49.7571" rx="24.8785" stroke="white" stroke-width="8"/>
</g>
<path d="M39.0434 45.1323C38.0714 45.1323 37.1894 44.8743 36.3974 44.3583C35.6054 43.8423 34.9754 43.0923 34.5074 42.1083C34.0514 41.1123 33.8234 39.9303 33.8234 38.5623C33.8234 37.1943 34.0514 36.0183 34.5074 35.0343C34.9754 34.0383 35.6054 33.2823 36.3974 32.7663C37.1894 32.2503 38.0714 31.9923 39.0434 31.9923C40.0154 31.9923 40.8974 32.2503 41.6894 32.7663C42.4814 33.2823 43.1054 34.0383 43.5614 35.0343C44.0294 36.0183 44.2634 37.1943 44.2634 38.5623C44.2634 39.9303 44.0294 41.1123 43.5614 42.1083C43.1054 43.0923 42.4814 43.8423 41.6894 44.3583C40.8974 44.8743 40.0154 45.1323 39.0434 45.1323ZM39.0434 44.7723C40.4234 44.7723 41.1134 42.7023 41.1134 38.5623C41.1134 34.4223 40.4234 32.3523 39.0434 32.3523C37.6634 32.3523 36.9734 34.4223 36.9734 38.5623C36.9734 42.7023 37.6634 44.7723 39.0434 44.7723ZM49.392 45.1323C48.564 45.1323 47.856 45.0183 47.268 44.7903C46.692 44.5623 46.254 44.2683 45.954 43.9083C45.666 43.5483 45.522 43.1763 45.522 42.7923C45.522 42.3843 45.642 42.0603 45.882 41.8203C46.134 41.5683 46.464 41.4423 46.872 41.4423C46.968 41.4423 47.064 41.4543 47.16 41.4783C47.256 41.4903 47.322 41.4963 47.358 41.4963L47.592 41.5323V44.4123C47.604 44.4123 47.73 44.4603 47.97 44.5563C48.282 44.6403 48.636 44.6823 49.032 44.6823C49.872 44.6823 50.514 44.4303 50.958 43.9263C51.414 43.4103 51.642 42.6423 51.642 41.6223C51.642 40.5783 51.42 39.7923 50.976 39.2643C50.544 38.7363 49.956 38.4723 49.212 38.4723H48.312V38.0223H49.212C49.752 38.0223 50.202 37.7823 50.562 37.3023C50.922 36.8223 51.102 36.1323 51.102 35.2323C51.102 34.3323 50.916 33.6423 50.544 33.1623C50.172 32.6823 49.698 32.4423 49.122 32.4423C48.81 32.4423 48.51 32.4903 48.222 32.5863C48.186 32.5983 48.066 32.6403 47.862 32.7123V35.5923L47.628 35.6463C47.436 35.6703 47.274 35.6823 47.142 35.6823C46.734 35.6823 46.404 35.5623 46.152 35.3223C45.912 35.0703 45.792 34.7403 45.792 34.3323C45.792 33.9603 45.936 33.5943 46.224 33.2343C46.512 32.8743 46.932 32.5803 47.484 32.3523C48.048 32.1123 48.714 31.9923 49.482 31.9923C50.49 31.9923 51.342 32.1423 52.038 32.4423C52.746 32.7303 53.274 33.1203 53.622 33.6123C53.982 34.1043 54.162 34.6443 54.162 35.2323C54.162 35.9163 53.988 36.4623 53.64 36.8703C53.292 37.2663 52.836 37.5843 52.272 37.8243C51.72 38.0403 51.09 38.1663 50.382 38.2023V38.2923C51.174 38.3283 51.894 38.4663 52.542 38.7063C53.982 39.2823 54.702 40.2543 54.702 41.6223C54.702 42.6783 54.264 43.5303 53.388 44.1783C52.524 44.8143 51.192 45.1323 49.392 45.1323Z" fill="white"/>
<defs>
<filter id="filter0_d_0_3" x="0" y="0.0786133" width="87.757" height="87.7571" filterUnits="userSpaceOnUse" color-interpolation-filters="sRGB">
<feFlood flood-opacity="0" result="BackgroundImageFix"/>
<feColorMatrix in="SourceAlpha" type="matrix" values="0 0 0 0 0 0 0 0 0 0 0 0 0 0 0 0 0 0 127 0" result="hardAlpha"/>
<feOffset dy="5"/>
<feGaussianBlur stdDeviation="7.5"/>
<feColorMatrix type="matrix" values="0 0 0 0 0.890196 0 0 0 0 0.721569 0 0 0 0 0.45098 0 0 0 0.15 0"/>
<feBlend mode="normal" in2="BackgroundImageFix" result="effect1_dropShadow_0_3"/>
<feBlend mode="normal" in="SourceGraphic" in2="effect1_dropShadow_0_3" result="shape"/>
</filter>
</defs>
</svg>
